<svg xmlns="http://www.w3.org/2000/svg" width="74.397" height="59.953" viewBox="0 0 74.397 59.953">
  <g id="browser" transform="translate(1 1)">
    <path id="Path_9" data-name="Path 9" d="M6629,1055h72.4v57.953H6629Z" transform="translate(-6629 -1055)" fill="none" stroke-linejoin="round" stroke-width="2"/>
    <path id="Path_10" data-name="Path 10" d="M6629,1116h72.4" transform="translate(-6629 -1105.384)" fill="none" stroke-width="2"/>
    <path id="Path_11" data-name="Path 11" d="M6933,1088.774h13.922" transform="translate(-6880.094 -1083.418)" fill="none" stroke-linecap="round" stroke-width="2"/>
    <path id="Path_12" data-name="Path 12" d="M6823.534,1088.774h-8.675" transform="translate(-6782.514 -1083.418)" fill="none" stroke-linecap="round" stroke-width="2"/>
    <path id="Path_13" data-name="Path 13" d="M6814.86,1088.774h0" transform="translate(-6799.221 -1083.418)" fill="none" stroke-linecap="round" stroke-width="2"/>
    <path id="Path_14" data-name="Path 14" d="M6814.86,1088.774h0" transform="translate(-6804.094 -1083.418)" fill="none" stroke-linecap="round" stroke-width="2"/>
    <path id="Path_15" data-name="Path 15" d="M6814.86,1088.774h0" transform="translate(-6808.967 -1083.418)" fill="none" stroke-linecap="round" stroke-width="2"/>
    <path id="Path_16" data-name="Path 16" d="M2.975,0H0" transform="translate(36.404 23.842) rotate(90)" fill="none" stroke-linecap="round" stroke-width="2"/>
    <path id="Path_17" data-name="Path 17" d="M2.975,0H0" transform="translate(36.404 38.461) rotate(90)" fill="none" stroke-linecap="round" stroke-width="2"/>
    <path id="Path_18" data-name="Path 18" d="M2.975,0H0" transform="translate(40.542 37.069) rotate(45)" fill="none" stroke-linecap="round" stroke-width="2"/>
    <path id="Path_19" data-name="Path 19" d="M6817.835,1088.774h-2.975" transform="translate(-6772.499 -1055.882)" fill="none" stroke-linecap="round" stroke-width="2"/>
    <path id="Path_20" data-name="Path 20" d="M2.975,0H0" transform="translate(40.637 28.541) rotate(-45)" fill="none" stroke-linecap="round" stroke-width="2"/>
    <path id="Path_21" data-name="Path 21" d="M2.975,0H0" transform="translate(32.037 28.541) rotate(-135)" fill="none" stroke-linecap="round" stroke-width="2"/>
    <path id="Path_22" data-name="Path 22" d="M6817.835,1088.774h-2.975" transform="translate(-6787.64 -1055.882)" fill="none" stroke-linecap="round" stroke-width="2"/>
    <path id="Path_23" data-name="Path 23" d="M2.975,0H0" transform="translate(32.196 37.069) rotate(135)" fill="none" stroke-linecap="round" stroke-width="2"/>
  </g>
</svg>
