<svg xmlns="http://www.w3.org/2000/svg" width="71.871" height="72.525" viewBox="0 0 71.871 72.525">
  <g id="Group_3" data-name="Group 3" transform="translate(1 1)">
    <path id="Path_31" data-name="Path 31" d="M4912.232,968v14.225" transform="translate(-4886.224 -968)" fill="none" stroke-linecap="round" stroke-width="2"/>
    <path id="Path_32" data-name="Path 32" d="M4912.232,968v14.225" transform="translate(-4868.348 -968)" fill="none" stroke-linecap="round" stroke-width="2"/>
    <path id="Path_33" data-name="Path 33" d="M4897.619,1069.858h22.428v4.642h-22.428Z" transform="translate(-4873.931 -1055.633)" fill="none" stroke-linecap="round" stroke-linejoin="round" stroke-width="2"/>
    <path id="Path_34" data-name="Path 34" d="M4872.937,1103.094l-6.7,20.236,15.624,24.479,15.629-24.479-3.724-10.636" transform="translate(-4846.929 -1084.228)" fill="none" stroke-linecap="round" stroke-linejoin="round" stroke-width="2"/>
    <path id="Path_35" data-name="Path 35" d="M5043.705,1108.683l-1.7-5.96" transform="translate(-4998.151 -1083.909)" fill="none" stroke-linecap="round" stroke-width="2"/>
    <path id="Path_36" data-name="Path 36" d="M4977.917,1277.6v-22.561" transform="translate(-4943.015 -1214.26)" fill="none" stroke-linecap="round" stroke-width="2"/>
    <path id="Path_38" data-name="Path 38" d="M3.91,0A3.91,3.91,0,1,1,0,3.91,3.889,3.889,0,0,1,3.91,0Z" transform="translate(31.003 32.958)" fill="none" stroke-linecap="round" stroke-linejoin="round" stroke-width="2"/>
    <path id="Path_37" data-name="Path 37" d="M0,0H4.792V4.792H0Z" transform="translate(65.079 65.733)" fill="none" stroke-linecap="round" stroke-linejoin="round" stroke-width="2"/>
    <path id="Path_39" data-name="Path 39" d="M0,0H4.792V4.792H0Z" transform="translate(32.539 65.733)" fill="none" stroke-linecap="round" stroke-linejoin="round" stroke-width="2"/>
    <path id="Path_40" data-name="Path 40" d="M0,0H4.792V4.792H0Z" transform="translate(0 65.733)" fill="none" stroke-linecap="round" stroke-linejoin="round" stroke-width="2"/>
    <path id="Path_41" data-name="Path 41" d="M5022.36,1455.843h-27.576" transform="translate(-4957.281 -1387.714)" fill="none" stroke-linecap="round" stroke-width="2"/>
    <path id="Path_42" data-name="Path 42" d="M4789.6,1455.843h-27.822" transform="translate(-4757.064 -1387.714)" fill="none" stroke-linecap="round" stroke-width="2"/>
    <path id="Path_43" data-name="Path 43" d="M0,0H4.792V4.792H0Z" transform="translate(10.195 41.294)" fill="none" stroke-linecap="round" stroke-linejoin="round" stroke-width="2"/>
    <path id="Path_44" data-name="Path 44" d="M0,0H4.792V4.792H0Z" transform="translate(54.884 41.294)" fill="none" stroke-linecap="round" stroke-linejoin="round" stroke-width="2"/>
    <path id="Path_45" data-name="Path 45" d="M4818.141,1298s-.695,22.029,19.977,22.029" transform="translate(-4805.689 -1251.914)" fill="none" stroke-linecap="round" stroke-width="2"/>
    <path id="Path_46" data-name="Path 46" d="M4838.142,1298s.7,22.058-20,22.058" transform="translate(-4780.683 -1251.929)" fill="none" stroke-linecap="round" stroke-width="2"/>
  </g>
</svg>
