<svg xmlns="http://www.w3.org/2000/svg" width="30.35" height="14.182" viewBox="0 0 30.35 14.182"><g transform="translate(-12.75 -8.909)"><path d="M33.838,12a1.418,1.418,0,0,0-1.4-1.2,1.4,1.4,0,0,0-.742.211,1.872,1.872,0,0,0-1.616-.92,1.891,1.891,0,0,0-1.887,1.891c0,.006,0,.013,0,.02a1.417,1.417,0,0,0,.236,2.817h5.188A1.417,1.417,0,0,0,33.838,12Z" transform="translate(2)" fill="#fff"/><path d="M38.31,20.3a1.018,1.018,0,0,0-.995-.875.98.98,0,0,0-.528.154,1.326,1.326,0,0,0-1.15-.671,1.363,1.363,0,0,0-1.343,1.38s0,.01,0,.014a1.036,1.036,0,0,0,.168,2.055h3.692A1.036,1.036,0,0,0,38.31,20.3Z" fill="#fff"/><ellipse cx="6.9" cy="7.091" rx="6.9" ry="7.091" transform="translate(12.75 8.909)" fill="#fff"/><ellipse cx="1.15" cy="1.182" rx="1.15" ry="1.182" transform="translate(40.8 11.273)" fill="#fff"/></g></svg>