<?xml version="1.0" ?><!DOCTYPE svg  PUBLIC '-//W3C//DTD SVG 1.1//EN'  'http://www.w3.org/Graphics/SVG/1.1/DTD/svg11.dtd'><svg height="100%" style="fill-rule:evenodd;clip-rule:evenodd;stroke-linejoin:round;stroke-miterlimit:2;" version="1.1" viewBox="0 0 32 32" width="100%" xml:space="preserve" xmlns="http://www.w3.org/2000/svg" xmlns:serif="http://www.serif.com/" xmlns:xlink="http://www.w3.org/1999/xlink"><g transform="matrix(1,0,0,1,-150,-150)"><g id="Icon" transform="matrix(0.5,0,0,0.5,0,0)"><g transform="matrix(0.873211,0,0,1.00376,121.499,308.033)"><path d="M214.414,24.262L210.048,24.262C209.125,24.262 208.375,23.609 208.375,22.806C208.375,22.806 208.375,13.694 208.375,13.694C208.375,12.891 209.125,12.238 210.048,12.238L223.952,12.238C224.875,12.238 225.625,12.891 225.625,13.694L225.625,22.806C225.625,23.609 224.875,24.262 223.952,24.262L219.586,24.262L217.488,26.543C217.369,26.672 217.19,26.747 217,26.747C216.81,26.747 216.631,26.672 216.512,26.543L214.414,24.262ZM217,25.334L218.798,23.379C218.916,23.25 219.096,23.175 219.286,23.175L223.952,23.175C224.186,23.175 224.375,23.01 224.375,22.806L224.375,13.694C224.375,13.49 224.186,13.325 223.952,13.325C223.952,13.325 210.048,13.325 210.048,13.325C209.814,13.325 209.625,13.49 209.625,13.694L209.625,22.806C209.625,23.01 209.814,23.175 210.048,23.175L214.714,23.175C214.904,23.175 215.084,23.25 215.202,23.379L217,25.334Z"/></g><g transform="matrix(0.873211,0,0,1.00376,163.528,308.033)"><path d="M214.414,24.262L210.048,24.262C209.125,24.262 208.375,23.609 208.375,22.806L208.375,13.694C208.375,12.891 209.125,12.238 210.048,12.238L223.952,12.238C224.875,12.238 225.625,12.891 225.625,13.694L225.625,22.806C225.625,23.609 224.875,24.262 223.952,24.262L219.586,24.262L217.488,26.543C217.369,26.672 217.19,26.747 217,26.747C216.81,26.747 216.631,26.672 216.512,26.543L214.414,24.262ZM217,25.334L218.798,23.379C218.916,23.25 219.096,23.175 219.286,23.175L223.952,23.175C224.186,23.175 224.375,23.01 224.375,22.806L224.375,13.694C224.375,13.49 224.186,13.325 223.952,13.325C223.952,13.325 210.048,13.325 210.048,13.325C209.814,13.325 209.625,13.49 209.625,13.694C209.625,13.694 209.625,22.806 209.625,22.806C209.625,23.01 209.814,23.175 210.048,23.175L214.714,23.175C214.904,23.175 215.084,23.25 215.202,23.379L217,25.334Z"/></g><g transform="matrix(1.3743,0,0,1.57977,33.7759,286.287)"><path d="M214.524,24.063L210.048,24.063C209.251,24.063 208.603,23.5 208.603,22.806L208.603,13.694C208.603,13 209.251,12.437 210.048,12.437L223.952,12.437C224.749,12.437 225.397,13 225.397,13.694L225.397,22.806C225.397,23.5 224.749,24.063 223.952,24.063L219.476,24.063L217.31,26.419C217.235,26.501 217.121,26.549 217,26.549C216.879,26.549 216.765,26.501 216.69,26.419L214.524,24.063ZM217,25.651L218.976,23.502C219.051,23.421 219.165,23.373 219.286,23.373L223.952,23.373C224.311,23.373 224.603,23.119 224.603,22.806L224.603,13.694C224.603,13.381 224.311,13.127 223.952,13.127C223.952,13.127 210.048,13.127 210.048,13.127C209.689,13.127 209.397,13.381 209.397,13.694C209.397,13.694 209.397,22.806 209.397,22.806C209.397,23.119 209.689,23.373 210.048,23.373L214.714,23.373C214.835,23.373 214.949,23.421 215.024,23.502L217,25.651Z"/></g><g transform="matrix(2.41616,0,0,2.41616,296.489,190.892)"><path d="M4,55.226L8,55.226C8.125,55.226 8.226,55.125 8.226,55C8.226,54.875 8.125,54.774 8,54.774L4,54.774C3.875,54.774 3.774,54.875 3.774,55C3.774,55.125 3.875,55.226 4,55.226Z"/></g><g transform="matrix(2.41616,0,0,2.41616,338.517,190.892)"><path d="M4,55.226L8,55.226C8.125,55.226 8.226,55.125 8.226,55C8.226,54.875 8.125,54.774 8,54.774L4,54.774C3.875,54.774 3.774,54.875 3.774,55C3.774,55.125 3.875,55.226 4,55.226Z"/></g><g transform="matrix(3.80269,0,0,3.80269,309.184,101.926)"><path d="M4,55.143L8,55.143C8.079,55.143 8.143,55.079 8.143,55C8.143,54.921 8.079,54.857 8,54.857L4,54.857C3.921,54.857 3.857,54.921 3.857,55C3.857,55.079 3.921,55.143 4,55.143Z"/></g><g transform="matrix(2.41616,0,0,2.41616,296.489,193.308)"><path d="M4,55.226L8,55.226C8.125,55.226 8.226,55.125 8.226,55C8.226,54.875 8.125,54.774 8,54.774L4,54.774C3.875,54.774 3.774,54.875 3.774,55C3.774,55.125 3.875,55.226 4,55.226Z"/></g><g transform="matrix(2.41616,0,0,2.41616,338.517,193.308)"><path d="M4,55.226L8,55.226C8.125,55.226 8.226,55.125 8.226,55C8.226,54.875 8.125,54.774 8,54.774L4,54.774C3.875,54.774 3.774,54.875 3.774,55C3.774,55.125 3.875,55.226 4,55.226Z"/></g><g transform="matrix(3.80269,0,0,3.80269,309.184,105.728)"><path d="M4,55.143L8,55.143C8.079,55.143 8.143,55.079 8.143,55C8.143,54.921 8.079,54.857 8,54.857L4,54.857C3.921,54.857 3.857,54.921 3.857,55C3.857,55.079 3.921,55.143 4,55.143Z"/></g><g transform="matrix(1.38067,0,0,2.41616,300.631,195.725)"><path d="M4,55.226L8,55.226C8.218,55.226 8.395,55.125 8.395,55C8.395,54.875 8.218,54.774 8,54.774L4,54.774C3.782,54.774 3.605,54.875 3.605,55C3.605,55.125 3.782,55.226 4,55.226Z"/></g><g transform="matrix(1.38067,0,0,2.41616,342.659,195.725)"><path d="M4,55.226L8,55.226C8.218,55.226 8.395,55.125 8.395,55C8.395,54.875 8.218,54.774 8,54.774L4,54.774C3.782,54.774 3.605,54.875 3.605,55C3.605,55.125 3.782,55.226 4,55.226Z"/></g><g transform="matrix(2.17296,0,0,3.80269,315.703,109.531)"><path d="M4,55.143L8,55.143C8.139,55.143 8.251,55.079 8.251,55C8.251,54.921 8.139,54.857 8,54.857L4,54.857C3.861,54.857 3.749,54.921 3.749,55C3.749,55.079 3.861,55.143 4,55.143Z"/></g><g transform="matrix(10.1715,0,0,10.1715,-1341.22,-235.12)"><path d="M164.5,55.946C164.194,55.946 163.946,56.194 163.946,56.5C163.946,56.806 164.194,57.054 164.5,57.054C164.806,57.054 165.054,56.806 165.054,56.5C165.054,56.194 164.806,55.946 164.5,55.946ZM164.5,56.054C164.746,56.054 164.946,56.254 164.946,56.5C164.946,56.746 164.746,56.946 164.5,56.946C164.254,56.946 164.054,56.746 164.054,56.5C164.054,56.254 164.254,56.054 164.5,56.054Z"/></g><g transform="matrix(6.46064,0,0,6.46064,-709.76,-22.4945)"><path d="M164.5,55.916C164.177,55.916 163.916,56.177 163.916,56.5C163.916,56.823 164.177,57.084 164.5,57.084C164.823,57.084 165.084,56.823 165.084,56.5C165.084,56.177 164.823,55.916 164.5,55.916ZM164.5,56.084C164.729,56.084 164.916,56.271 164.916,56.5C164.916,56.729 164.729,56.916 164.5,56.916C164.271,56.916 164.084,56.729 164.084,56.5C164.084,56.271 164.271,56.084 164.5,56.084Z"/></g><g transform="matrix(6.46064,0,0,6.46064,-751.789,-22.4945)"><path d="M164.5,55.916C164.177,55.916 163.916,56.177 163.916,56.5C163.916,56.823 164.177,57.084 164.5,57.084C164.823,57.084 165.084,56.823 165.084,56.5C165.084,56.177 164.823,55.916 164.5,55.916ZM164.5,56.084C164.729,56.084 164.916,56.271 164.916,56.5C164.916,56.729 164.729,56.916 164.5,56.916C164.271,56.916 164.084,56.729 164.084,56.5C164.084,56.271 164.271,56.084 164.5,56.084Z"/></g><g transform="matrix(4.45005,0,0,4.45005,-406.708,85.2832)"><path d="M163.716,60.991C163.713,61.025 163.725,61.058 163.748,61.083C163.771,61.108 163.804,61.123 163.838,61.123L168.162,61.123C168.196,61.123 168.229,61.108 168.252,61.083C168.275,61.058 168.287,61.025 168.284,60.991C168.193,59.809 167.205,58.877 166,58.877C164.795,58.877 163.807,59.809 163.716,60.991ZM168.025,60.877C167.884,59.886 167.03,59.123 166,59.123C164.97,59.123 164.116,59.886 163.975,60.877L168.025,60.877Z"/></g><g transform="matrix(2.82653,0,0,2.82653,-116.189,181.016)"><path d="M163.646,60.985C163.642,61.039 163.66,61.092 163.697,61.131C163.733,61.171 163.784,61.193 163.838,61.193L168.162,61.193C168.216,61.193 168.267,61.171 168.303,61.131C168.34,61.092 168.358,61.039 168.354,60.985C168.261,59.767 167.242,58.807 166,58.807C164.758,58.807 163.739,59.767 163.646,60.985ZM167.942,60.807C167.772,59.889 166.967,59.193 166,59.193C165.033,59.193 164.228,59.889 164.058,60.807L167.942,60.807Z"/></g><g transform="matrix(2.82653,0,0,2.82653,-158.218,181.016)"><path d="M163.646,60.985C163.642,61.039 163.66,61.092 163.697,61.131C163.733,61.171 163.784,61.193 163.838,61.193L168.162,61.193C168.216,61.193 168.267,61.171 168.303,61.131C168.34,61.092 168.358,61.039 168.354,60.985C168.261,59.767 167.242,58.807 166,58.807C164.758,58.807 163.739,59.767 163.646,60.985ZM167.942,60.807C167.772,59.889 166.967,59.193 166,59.193C165.033,59.193 164.228,59.889 164.058,60.807L167.942,60.807Z"/></g></g></g></svg>