<svg xmlns="http://www.w3.org/2000/svg" viewBox="0 0 130 130">
  <g transform="translate(-1670 -542)">
    <circle  cx="5" cy="5" r="5" transform="translate(1670 542)"/>
    <circle  cx="5" cy="5" r="5" transform="translate(1690 542)"/>
    <circle  cx="5" cy="5" r="5" transform="translate(1710 542)"/>
    <circle  cx="5" cy="5" r="5" transform="translate(1730 542)"/>
    <circle  cx="5" cy="5" r="5" transform="translate(1750 542)"/>
    <circle  cx="5" cy="5" r="5" transform="translate(1770 542)"/>
    <circle  cx="5" cy="5" r="5" transform="translate(1790 542)"/>
    <circle  cx="5" cy="5" r="5" transform="translate(1670 562)"/>
    <circle  cx="5" cy="5" r="5" transform="translate(1690 562)"/>
    <circle  cx="5" cy="5" r="5" transform="translate(1710 562)"/>
    <circle  cx="5" cy="5" r="5" transform="translate(1730 562)"/>
    <circle  cx="5" cy="5" r="5" transform="translate(1750 562)"/>
    <circle  cx="5" cy="5" r="5" transform="translate(1770 562)"/>
    <circle  cx="5" cy="5" r="5" transform="translate(1790 562)"/>
    <circle  cx="5" cy="5" r="5" transform="translate(1670 582)"/>
    <circle  cx="5" cy="5" r="5" transform="translate(1690 582)"/>
    <circle  cx="5" cy="5" r="5" transform="translate(1710 582)"/>
    <circle  cx="5" cy="5" r="5" transform="translate(1730 582)"/>
    <circle  cx="5" cy="5" r="5" transform="translate(1750 582)"/>
    <circle  cx="5" cy="5" r="5" transform="translate(1770 582)"/>
    <circle  cx="5" cy="5" r="5" transform="translate(1790 582)"/>
    <circle  cx="5" cy="5" r="5" transform="translate(1670 602)"/>
    <circle  cx="5" cy="5" r="5" transform="translate(1690 602)"/>
    <circle  cx="5" cy="5" r="5" transform="translate(1710 602)"/>
    <circle  cx="5" cy="5" r="5" transform="translate(1730 602)"/>
    <circle  cx="5" cy="5" r="5" transform="translate(1750 602)"/>
    <circle  cx="5" cy="5" r="5" transform="translate(1770 602)"/>
    <circle  cx="5" cy="5" r="5" transform="translate(1790 602)"/>
    <circle  cx="5" cy="5" r="5" transform="translate(1670 622)"/>
    <circle  cx="5" cy="5" r="5" transform="translate(1690 622)"/>
    <circle  cx="5" cy="5" r="5" transform="translate(1710 622)"/>
    <circle  cx="5" cy="5" r="5" transform="translate(1730 622)"/>
    <circle  cx="5" cy="5" r="5" transform="translate(1750 622)"/>
    <circle  cx="5" cy="5" r="5" transform="translate(1770 622)"/>
    <circle  cx="5" cy="5" r="5" transform="translate(1790 622)"/>
    <circle  cx="5" cy="5" r="5" transform="translate(1670 642)"/>
    <circle  cx="5" cy="5" r="5" transform="translate(1690 642)"/>
    <circle  cx="5" cy="5" r="5" transform="translate(1710 642)"/>
    <circle  cx="5" cy="5" r="5" transform="translate(1730 642)"/>
    <circle  cx="5" cy="5" r="5" transform="translate(1750 642)"/>
    <circle  cx="5" cy="5" r="5" transform="translate(1770 642)"/>
    <circle  cx="5" cy="5" r="5" transform="translate(1790 642)"/>
    <circle  cx="5" cy="5" r="5" transform="translate(1670 662)"/>
    <circle  cx="5" cy="5" r="5" transform="translate(1690 662)"/>
    <circle  cx="5" cy="5" r="5" transform="translate(1710 662)"/>
    <circle  cx="5" cy="5" r="5" transform="translate(1730 662)"/>
    <circle  cx="5" cy="5" r="5" transform="translate(1750 662)"/>
    <circle  cx="5" cy="5" r="5" transform="translate(1770 662)"/>
    <circle  cx="5" cy="5" r="5" transform="translate(1790 662)"/>
  </g>
</svg>
